<svg xmlns="http://www.w3.org/2000/svg" xmlns:xlink="http://www.w3.org/1999/xlink" width="500" zoomAndPan="magnify" viewBox="0 0 375 374.999991" height="500" preserveAspectRatio="xMidYMid meet" version="1.0"><path fill="#8c52ff" d="M 80.183594 349 C 60.953125 349 42.175781 349 23.007812 349 C 23.007812 246.285156 23.007812 143.632812 23.007812 40.761719 C 42.058594 40.761719 60.835938 40.761719 79.988281 40.761719 C 79.988281 49.605469 79.988281 58.335938 79.988281 67.632812 C 136.035156 23.046875 196.546875 14.589844 262.886719 41.796875 C 252.929688 59.019531 243.425781 75.429688 233.867188 91.964844 C 223.46875 87.949219 213.03125 85.207031 202.128906 84.15625 C 184.398438 82.445312 167.214844 84.621094 150.71875 91.175781 C 122.890625 102.234375 102.714844 121.605469 90.035156 148.671875 C 82.773438 164.199219 80.011719 180.683594 80.078125 197.800781 C 80.234375 246.945312 80.15625 296.074219 80.183594 345.21875 C 80.183594 346.320312 80.183594 347.421875 80.183594 349 Z M 80.183594 349 " fill-opacity="1" fill-rule="nonzero"/><path fill="#8c52ff" d="M 286.429688 333.902344 C 227.070312 374.992188 152.3125 372.195312 94.890625 333.566406 C 104.308594 317.300781 113.746094 300.984375 123.460938 284.214844 C 163.253906 309.957031 204.070312 314.527344 245.898438 291.632812 C 261.5 283.113281 273.789062 271.78125 283.089844 257.914062 C 283.089844 257.914062 283.21875 257.71875 283.476562 257.316406 C 290.070312 247.371094 295.09375 236.144531 298.691406 223.738281 L 298.125 223.738281 C 302.925781 208.097656 306.4375 188.246094 304.027344 166.683594 L 358.003906 166.683594 C 365.953125 227.289062 346.828125 292.074219 286.429688 333.902344 Z M 286.429688 333.902344 " fill-opacity="1" fill-rule="nonzero"/></svg>